<?xml version="1.0" encoding="utf-8"?>
<!-- Generator: Adobe Illustrator 22.1.0, SVG Export Plug-In . SVG Version: 6.00 Build 0)  -->
<svg version="1.1" id="Layer_1" xmlns="http://www.w3.org/2000/svg" xmlns:xlink="http://www.w3.org/1999/xlink" x="0px" y="0px"
	 viewBox="0 0 63 84" style="enable-background:new 0 0 63 84;" xml:space="preserve">
<style type="text/css">
	.st0{fill:#667F77;}
</style>
<path class="st0" d="M0,0v83.7h63V0H0z M15.1,76.7H6.9v-8.2h8.2V76.7z M15.1,66.5H6.9v-8.2h8.2V66.5z M15.1,56.2H6.9V48h8.2V56.2z
	 M15.1,45.9H6.9v-8.2h8.2V45.9z M15.1,35.7H6.9v-8.2h8.2V35.7z M15.1,25.4H6.9v-8.2h8.2V25.4z M15.1,15.1H6.9V6.9h8.2V15.1z
	 M25.3,45.9h-8.2v-8.2h8.2V45.9z M35.6,45.9h-8.2v-8.2h8.2V45.9z M45.9,45.9h-8.2v-8.2h8.2V45.9z M56.1,76.7h-8.2v-8.2h8.2V76.7z
	 M56.1,66.5h-8.2v-8.2h8.2V66.5z M56.1,56.2h-8.2V48h8.2V56.2z M56.1,45.9h-8.2v-8.2h8.2V45.9z M56.1,35.7h-8.2v-8.2h8.2V35.7z
	 M56.1,25.4h-8.2v-8.2h8.2V25.4z M56.1,15.1h-8.2V6.9h8.2V15.1z"/>
</svg>
